<svg width="38" height="38" viewBox="0 0 38 38" fill="none" xmlns="http://www.w3.org/2000/svg">
<path d="M32.3744 32.3823H26.7473V23.5648C26.7473 21.4621 26.7045 18.7562 23.8149 18.7562C20.881 18.7562 20.4329 21.0441 20.4329 23.4096V32.3823H14.8058V14.25H20.2113V16.7216H20.2841C21.0393 15.2966 22.876 13.7924 25.6199 13.7924C31.3215 13.7924 32.376 17.5449 32.376 22.4295V32.3823H32.3744ZM8.45025 11.7689C8.02097 11.7691 7.59587 11.6847 7.19927 11.5204C6.80267 11.3561 6.44236 11.1152 6.13896 10.8116C5.83556 10.5079 5.59503 10.1473 5.43114 9.75056C5.26725 9.3538 5.18321 8.92861 5.18383 8.49933C5.18415 7.85298 5.37612 7.22124 5.73547 6.684C6.09482 6.14675 6.60542 5.72813 7.20269 5.48107C7.79996 5.23402 8.45707 5.16962 9.09094 5.29602C9.72481 5.42242 10.307 5.73395 10.7638 6.19121C11.2206 6.64847 11.5316 7.23092 11.6573 7.86492C11.7831 8.49891 11.7181 9.15596 11.4705 9.75299C11.2228 10.35 10.8037 10.8602 10.2661 11.219C9.72853 11.5779 9.0966 11.7692 8.45025 11.7689V11.7689ZM11.2718 32.3823H5.62875V14.25H11.2718V32.3823ZM35.1896 0H2.80408C1.254 0 0 1.2255 0 2.73758V35.2624C0 36.7761 1.254 38 2.80408 38H35.1848C36.7333 38 38 36.7761 38 35.2624V2.73758C38 1.2255 36.7333 0 35.1848 0H35.1896Z" fill="#E86A92"/>
</svg>
