<svg width="38" height="38" viewBox="0 0 38 38" fill="none" xmlns="http://www.w3.org/2000/svg">
<g clip-path="url(#clip0_523_7)">
<path d="M38 19.475C38 23.7196 36.7916 27.5367 34.3748 30.9263C31.9599 34.3159 28.8382 36.6605 25.0116 37.962C24.567 38.0475 24.2402 37.9886 24.035 37.7853C23.9338 37.6868 23.854 37.5685 23.8007 37.4377C23.7474 37.3069 23.7217 37.1665 23.7253 37.0253V31.673C23.7253 30.0333 23.2959 28.8325 22.439 28.0725C23.2951 27.9866 24.1431 27.8341 24.9755 27.6165C25.7241 27.4132 26.4993 27.0845 27.2992 26.6285C28.0682 26.1982 28.7485 25.6256 29.3037 24.9413C29.8395 24.2725 30.2765 23.3852 30.6147 22.2775C30.9529 21.1698 31.122 19.8987 31.122 18.4623C31.122 16.416 30.4703 14.6737 29.1688 13.2373C29.7768 11.6983 29.7122 9.97498 28.9693 8.06358C28.5076 7.91158 27.8407 8.00658 26.9667 8.34288C26.1739 8.64069 25.4117 9.01418 24.6905 9.45818L23.75 10.0662C22.2052 9.62577 20.6063 9.40448 19 9.40878C17.3936 9.4051 15.7947 9.62703 14.25 10.0681C13.9064 9.8301 13.556 9.602 13.1993 9.38408C12.7623 9.11238 12.0726 8.78748 11.1321 8.40748C10.1935 8.02748 9.4829 7.91348 9.0041 8.06548C8.2802 9.97498 8.2213 11.6983 8.8331 13.2373C7.5297 14.6737 6.8761 16.416 6.8761 18.4623C6.8761 19.8987 7.0471 21.166 7.3853 22.2661C7.7235 23.3643 8.1567 24.2516 8.683 24.928C9.22875 25.6194 9.90536 26.1966 10.6742 26.6266C11.4741 27.0826 12.2512 27.4132 12.9998 27.6146C13.7503 27.8198 14.5958 27.9718 15.5363 28.0725C14.877 28.6805 14.4723 29.5526 14.3241 30.685C13.9699 30.8566 13.5959 30.9842 13.2107 31.065C12.7464 31.1561 12.274 31.1988 11.8009 31.1923C11.2556 31.1923 10.7179 31.0099 10.1802 30.647C9.6444 30.2822 9.1865 29.754 8.8065 29.0624C8.50966 28.5393 8.10012 28.0889 7.6076 27.7438C7.1212 27.4056 6.7127 27.2023 6.3821 27.1358L5.8881 27.0598C5.5423 27.0598 5.3029 27.0978 5.1699 27.1738C5.0369 27.2498 4.9989 27.3448 5.0464 27.4645C5.10228 27.5934 5.17722 27.7132 5.2687 27.8198C5.36361 27.9339 5.47208 28.0359 5.5917 28.1238L5.7627 28.2492C6.1275 28.4202 6.4847 28.7413 6.84 29.2144C7.1953 29.6875 7.4556 30.1188 7.619 30.5064L7.866 31.0897C8.0807 31.7319 8.4436 32.2525 8.9566 32.6496C9.4677 33.0486 10.0206 33.3013 10.6134 33.4096C11.2062 33.5198 11.78 33.5806 12.3329 33.5882C12.8839 33.5958 13.3437 33.5673 13.7066 33.4989L14.2747 33.3982C14.2747 34.0404 14.2785 34.7928 14.288 35.6554L14.2994 37.0234C14.2994 37.3274 14.193 37.582 13.9764 37.7834C13.7636 37.9886 13.433 38.0475 12.9884 37.962C9.1618 36.6605 6.0401 34.314 3.6252 30.9263C1.2084 27.5367 0 23.7196 0 19.475C0 15.941 0.8493 12.6844 2.5479 9.69948C4.19232 6.77188 6.57732 4.3279 9.4639 2.61248C12.3414 0.880275 15.6414 -0.0237765 19 -1.84164e-05C22.3592 -0.0241269 25.6599 0.879937 28.538 2.61248C31.4239 4.32816 33.8082 6.77212 35.4521 9.69948C37.1507 12.6825 38 15.9429 38 19.475Z" fill="#E86A92"/>
</g>
<defs>
<clipPath id="clip0_523_7">
<rect width="38" height="38" fill="white"/>
</clipPath>
</defs>
</svg>
