<svg width="24" height="24" viewBox="0 0 24 24" fill="none" xmlns="http://www.w3.org/2000/svg">
<path d="M22 12C22 6.477 17.523 2 12 2C6.477 2 2 6.477 2 12C2 17.523 6.477 22 12 22" stroke="black" stroke-width="1.5" stroke-linecap="round" stroke-linejoin="round"/>
<path d="M13 2.05005C13 2.05005 16 6.00005 16 12M11 21.9501C11 21.9501 8 18 8 12C8 6.00005 11 2.05005 11 2.05005M2.63 15.5H12M2.63 8.50005H21.37" stroke="black" stroke-width="1.5" stroke-linecap="round" stroke-linejoin="round"/>
<path d="M21.879 17.917C22.373 18.221 22.342 18.96 21.834 19.018L19.267 19.309L18.116 21.621C17.888 22.08 17.183 21.855 17.066 21.287L15.811 15.171C15.712 14.691 16.144 14.389 16.561 14.646L21.879 17.917Z" stroke="black" stroke-width="1.5"/>
</svg>
