<svg width="38" height="38" viewBox="0 0 38 38" fill="none" xmlns="http://www.w3.org/2000/svg">
<g clip-path="url(#clip0_523_11)">
<path d="M9.66467 9.3575C10.5893 10.108 10.9345 10.051 12.6698 9.93542L29.0288 8.95375C29.3772 8.95375 29.0874 8.60542 28.9718 8.54842L26.2548 6.58509C25.7339 6.18134 25.0404 5.71742 23.712 5.833L7.87075 6.98884C7.29442 7.04584 7.17883 7.33559 7.40842 7.56675L9.66467 9.3575ZM10.6463 13.1702V30.381C10.6463 31.3073 11.1087 31.6524 12.1505 31.5954L30.1277 30.5552C31.1679 30.4982 31.2835 29.8617 31.2835 29.1112V12.0143C31.2835 11.2638 30.9953 10.8585 30.3588 10.9171L11.571 12.0143C10.8775 12.0713 10.6463 12.4181 10.6463 13.1702ZM28.3955 14.0933C28.5095 14.6126 28.3955 15.1335 27.873 15.1921L27.0069 15.3647V28.0709C26.2548 28.4763 25.5613 28.7074 24.9834 28.7074C24.0588 28.7074 23.8276 28.4177 23.1341 27.5516L17.4673 18.6564V27.2634L19.2612 27.6672C19.2612 27.6672 19.2612 28.7074 17.8141 28.7074L13.8257 28.9386C13.7101 28.7074 13.8257 28.1311 14.231 28.0139L15.2712 27.7258V16.3463L13.8257 16.2308C13.7101 15.7098 13.9998 14.9593 14.8089 14.9008L19.0871 14.6142L24.9834 23.6233V15.6544L23.4792 15.4818C23.3652 14.8453 23.8276 14.3846 24.4055 14.326L28.3955 14.0948V14.0933ZM6.54075 5.42925L23.0169 4.21642C25.0388 4.04225 25.5597 4.15942 26.8328 5.0825L32.091 8.77959C32.9587 9.4145 33.2484 9.58709 33.2484 10.2806V30.5552C33.2484 31.8266 32.7861 32.5771 31.1679 32.6927L12.0333 33.8485C10.8189 33.9055 10.241 33.7329 9.6045 32.9238L5.73167 27.8983C5.03817 26.9737 4.75 26.2818 4.75 25.4711V7.45117C4.75 6.41092 5.21075 5.54484 6.54075 5.42925Z" fill="#E86A92"/>
</g>
<defs>
<clipPath id="clip0_523_11">
<rect width="38" height="38" fill="white"/>
</clipPath>
</defs>
</svg>
