<svg width="50" height="52" viewBox="0 0 50 52" fill="none" xmlns="http://www.w3.org/2000/svg">
<path d="M20.8333 47.3333C17.9861 47.3333 15.2951 46.7642 12.7604 45.626C10.2257 44.4892 8.0125 42.9364 6.12083 40.9677C4.22778 39.0003 2.73472 36.6986 1.64167 34.0625C0.547222 31.4264 0 28.6278 0 25.6667C0 22.6694 0.547222 19.8622 1.64167 17.2448C2.73472 14.6261 4.22778 12.333 6.12083 10.3657C8.0125 8.39689 10.2257 6.84339 12.7604 5.70517C15.2951 4.56839 17.9861 4 20.8333 4C23.7153 4 26.4146 4.56839 28.9313 5.70517C31.4493 6.84339 33.6542 8.39689 35.5458 10.3657C37.4389 12.333 38.9319 14.6261 40.025 17.2448C41.1194 19.8622 41.6667 22.6694 41.6667 25.6667V28.8083C41.6667 30.9389 40.9639 32.7531 39.5583 34.251C38.1514 35.7503 36.4236 36.5 34.375 36.5C33.125 36.5 31.9618 36.2111 30.8854 35.6333C29.809 35.0556 28.9236 34.2972 28.2292 33.3583C27.2917 34.3333 26.1896 35.1011 24.9229 35.6615C23.6549 36.2205 22.2917 36.5 20.8333 36.5C17.9514 36.5 15.4951 35.4434 13.4646 33.3302C11.4326 31.2184 10.4167 28.6639 10.4167 25.6667C10.4167 22.6694 11.4326 20.1142 13.4646 18.001C15.4951 15.8892 17.9514 14.8333 20.8333 14.8333C23.7153 14.8333 26.1722 15.8892 28.2042 18.001C30.2347 20.1142 31.25 22.6694 31.25 25.6667V28.8083C31.25 29.8556 31.5625 30.6767 32.1875 31.2718C32.8125 31.8684 33.5417 32.1667 34.375 32.1667C35.2083 32.1667 35.9375 31.8684 36.5625 31.2718C37.1875 30.6767 37.5 29.8556 37.5 28.8083V25.6667C37.5 20.9361 35.859 16.8642 32.5771 13.451C29.2965 10.0392 25.3819 8.33333 20.8333 8.33333C16.2847 8.33333 12.3694 10.0392 9.0875 13.451C5.80694 16.8642 4.16667 20.9361 4.16667 25.6667C4.16667 30.3972 5.80694 34.4684 9.0875 37.8802C12.3694 41.2934 16.2847 43 20.8333 43H29.1667C29.7569 43 30.2514 43.208 30.65 43.624C31.05 44.0386 31.25 44.5528 31.25 45.1667C31.25 45.7806 31.05 46.2948 30.65 46.7093C30.2514 47.1253 29.7569 47.3333 29.1667 47.3333H20.8333ZM20.8333 32.1667C22.5694 32.1667 24.0451 31.5347 25.2604 30.2708C26.4757 29.0069 27.0833 27.4722 27.0833 25.6667C27.0833 23.8611 26.4757 22.3264 25.2604 21.0625C24.0451 19.7986 22.5694 19.1667 20.8333 19.1667C19.0972 19.1667 17.6215 19.7986 16.4063 21.0625C15.191 22.3264 14.5833 23.8611 14.5833 25.6667C14.5833 27.4722 15.191 29.0069 16.4063 30.2708C17.6215 31.5347 19.0972 32.1667 20.8333 32.1667Z" fill="#30BEB0"/>
</svg>
