<svg width="41" height="43" viewBox="0 0 41 43" fill="none" xmlns="http://www.w3.org/2000/svg">
<path d="M34.9303 36.6432H28.8589V26.6654C28.8589 24.286 28.8128 21.2241 25.695 21.2241C22.5295 21.2241 22.046 23.813 22.046 26.4898V36.6432H15.9746V16.125H21.8069V18.9218H21.8855C22.7003 17.3093 24.682 15.6072 27.6425 15.6072C33.7943 15.6072 34.932 19.8535 34.932 25.3808V36.6432H34.9303ZM9.11738 13.3175C8.65421 13.3177 8.19554 13.2221 7.76763 13.0362C7.33972 12.8503 6.95096 12.5778 6.62361 12.2341C6.29626 11.8905 6.03675 11.4825 5.85991 11.0335C5.68308 10.5846 5.59241 10.1034 5.59308 9.61767C5.59342 8.88627 5.80055 8.17141 6.18827 7.56347C6.57599 6.95553 7.1269 6.48183 7.77132 6.20227C8.41574 5.9227 9.12474 5.84983 9.80865 5.99286C10.4926 6.1359 11.1207 6.48842 11.6135 7.00585C12.1064 7.52327 12.4419 8.18236 12.5777 8.89977C12.7134 9.61718 12.6432 10.3607 12.376 11.0363C12.1088 11.7119 11.6566 12.2892 11.0766 12.6952C10.4966 13.1013 9.81475 13.3178 9.11738 13.3175ZM12.1616 36.6432H6.07313V16.125H12.1616V36.6432ZM37.9677 0H3.02546C1.353 0 0 1.38675 0 3.09779V39.9022C0 41.615 1.353 43 3.02546 43H37.9626C39.6333 43 41 41.615 41 39.9022V3.09779C41 1.38675 39.6333 0 37.9626 0H37.9677Z" fill="#30BEB0"/>
</svg>
