<svg width="38" height="38" viewBox="0 0 38 38" fill="none" xmlns="http://www.w3.org/2000/svg">
<path d="M15.8333 34.5898C13.6694 34.5898 11.6243 34.1739 9.69792 33.3421C7.77153 32.5114 6.0895 31.3766 4.65183 29.9379C3.21311 28.5003 2.07839 26.8182 1.24767 24.8918C0.415889 22.9655 0 20.9203 0 18.7564C0 16.5662 0.415889 14.5147 1.24767 12.602C2.07839 10.6883 3.21311 9.0126 4.65183 7.57493C6.0895 6.13621 7.77153 5.00096 9.69792 4.16918C11.6243 3.33846 13.6694 2.9231 15.8333 2.9231C18.0236 2.9231 20.0751 3.33846 21.9878 4.16918C23.9015 5.00096 25.5772 6.13621 27.0148 7.57493C28.4536 9.0126 29.5883 10.6883 30.419 12.602C31.2508 14.5147 31.6667 16.5662 31.6667 18.7564V21.0523C31.6667 22.6092 31.1326 23.935 30.0643 25.0296C28.9951 26.1253 27.6819 26.6731 26.125 26.6731C25.175 26.6731 24.291 26.462 23.4729 26.0398C22.6549 25.6175 21.9819 25.0634 21.4542 24.3773C20.7417 25.0898 19.9041 25.6508 18.9414 26.0603C17.9777 26.4688 16.9417 26.6731 15.8333 26.6731C13.6431 26.6731 11.7763 25.901 10.2331 24.3567C8.68881 22.8135 7.91667 20.9467 7.91667 18.7564C7.91667 16.5662 8.68881 14.6989 10.2331 13.1546C11.7763 11.6114 13.6431 10.8398 15.8333 10.8398C18.0236 10.8398 19.8909 11.6114 21.4352 13.1546C22.9784 14.6989 23.75 16.5662 23.75 18.7564V21.0523C23.75 21.8175 23.9875 22.4176 24.4625 22.8525C24.9375 23.2885 25.4917 23.5064 26.125 23.5064C26.7583 23.5064 27.3125 23.2885 27.7875 22.8525C28.2625 22.4176 28.5 21.8175 28.5 21.0523V18.7564C28.5 15.2995 27.2529 12.3239 24.7586 9.8296C22.2654 7.33637 19.2903 6.08976 15.8333 6.08976C12.3764 6.08976 9.40078 7.33637 6.9065 9.8296C4.41328 12.3239 3.16667 15.2995 3.16667 18.7564C3.16667 22.2134 4.41328 25.1885 6.9065 27.6817C9.40078 30.176 12.3764 31.4231 15.8333 31.4231H22.1667C22.6153 31.4231 22.9911 31.5751 23.294 31.8791C23.598 32.182 23.75 32.5578 23.75 33.0064C23.75 33.455 23.598 33.8308 23.294 34.1338C22.9911 34.4378 22.6153 34.5898 22.1667 34.5898H15.8333ZM15.8333 23.5064C17.1528 23.5064 18.2743 23.0446 19.1979 22.121C20.1215 21.1974 20.5833 20.0759 20.5833 18.7564C20.5833 17.437 20.1215 16.3155 19.1979 15.3918C18.2743 14.4682 17.1528 14.0064 15.8333 14.0064C14.5139 14.0064 13.3924 14.4682 12.4688 15.3918C11.5451 16.3155 11.0833 17.437 11.0833 18.7564C11.0833 20.0759 11.5451 21.1974 12.4688 22.121C13.3924 23.0446 14.5139 23.5064 15.8333 23.5064Z" fill="#E86A92"/>
</svg>
