<svg width="38" height="38" viewBox="0 0 38 38" fill="none" xmlns="http://www.w3.org/2000/svg">
<g clip-path="url(#clip0_523_2)">
<path d="M34.8333 3.56256H29.6875V1.18756C29.6877 0.872615 29.5628 0.570486 29.3403 0.347638C29.1177 0.12479 28.8157 -0.000522177 28.5008 -0.00073214C28.1858 -0.000942103 27.8837 0.123968 27.6609 0.346519C27.438 0.56907 27.3127 0.871032 27.3125 1.18598V3.56256H20.1875V1.18756C20.1876 1.03161 20.157 0.877177 20.0974 0.733063C20.0378 0.588949 19.9504 0.457981 19.8403 0.347638C19.7301 0.237295 19.5992 0.149737 19.4552 0.0899639C19.3111 0.0301903 19.1567 -0.000628194 19.0008 -0.000732158C18.6858 -0.000942121 18.3837 0.123968 18.1609 0.346519C17.938 0.56907 17.8127 0.871032 17.8125 1.18598V3.56256H10.6875V1.18756C10.6876 1.03161 10.657 0.877177 10.5974 0.733063C10.5378 0.588949 10.4504 0.457981 10.3402 0.347638C10.2301 0.237295 10.0992 0.149737 9.95517 0.0899639C9.81113 0.0301903 9.65674 -0.000628194 9.50079 -0.000732158C9.18585 -0.000942121 8.88372 0.123968 8.66087 0.346519C8.43802 0.56907 8.31271 0.871032 8.3125 1.18598V3.56256H3.16667C2.32709 3.56256 1.52187 3.89597 0.928055 4.48949C0.334235 5.08302 0.000419789 5.88807 0 6.72764V34.8318C0 35.6717 0.33363 36.4771 0.927495 37.071C1.52136 37.6648 2.32681 37.9985 3.16667 37.9985H34.8333C35.6732 37.9985 36.4786 37.6648 37.0725 37.071C37.6664 36.4771 38 35.6717 38 34.8318V6.72764C37.9996 5.88807 37.6658 5.08302 37.0719 4.48949C36.4781 3.89597 35.6729 3.56256 34.8333 3.56256ZM35.625 34.8334C35.625 35.0431 35.5418 35.2442 35.3937 35.3926C35.2456 35.541 35.0446 35.6246 34.8349 35.6251H3.16667C2.9567 35.6251 2.75534 35.5417 2.60687 35.3932C2.45841 35.2447 2.375 35.0434 2.375 34.8334V6.72923C2.37542 6.51954 2.45901 6.31858 2.60743 6.17046C2.75585 6.02233 2.95698 5.93914 3.16667 5.93914H8.3125V8.31414C8.31229 8.62909 8.4372 8.93122 8.65975 9.15406C8.8823 9.37691 9.18426 9.50222 9.49921 9.50243C9.81415 9.50264 10.1163 9.37774 10.3391 9.15518C10.562 8.93263 10.6873 8.63067 10.6875 8.31573V5.93914H17.8125V8.31414C17.8123 8.62909 17.9372 8.93122 18.1598 9.15406C18.3823 9.37691 18.6843 9.50222 18.9992 9.50243C19.3142 9.50264 19.6163 9.37774 19.8391 9.15518C20.062 8.93263 20.1873 8.63067 20.1875 8.31573V5.93914H27.3125V8.31414C27.3123 8.62909 27.4372 8.93122 27.6598 9.15406C27.8823 9.37691 28.1843 9.50222 28.4992 9.50243C28.8142 9.50264 29.1163 9.37774 29.3391 9.15518C29.562 8.93263 29.6873 8.63067 29.6875 8.31573V5.93914H34.8333C35.0427 5.93956 35.2435 6.02294 35.3915 6.17102C35.5396 6.31909 35.623 6.51981 35.6234 6.72923L35.625 34.8334Z" fill="#E86A92"/>
<path d="M8.3125 14.25H13.0625V17.8125H8.3125V14.25ZM8.3125 20.1875H13.0625V23.75H8.3125V20.1875ZM8.3125 26.125H13.0625V29.6875H8.3125V26.125ZM16.625 26.125H21.375V29.6875H16.625V26.125ZM16.625 20.1875H21.375V23.75H16.625V20.1875ZM16.625 14.25H21.375V17.8125H16.625V14.25ZM24.9375 26.125H29.6875V29.6875H24.9375V26.125ZM24.9375 20.1875H29.6875V23.75H24.9375V20.1875ZM24.9375 14.25H29.6875V17.8125H24.9375V14.25Z" fill="#E86A92"/>
</g>
<defs>
<clipPath id="clip0_523_2">
<rect width="38" height="38" fill="white"/>
</clipPath>
</defs>
</svg>
