<svg width="38" height="38" viewBox="0 0 38 38" fill="none" xmlns="http://www.w3.org/2000/svg">
<path d="M14.82 12.0649C15.884 12.0649 16.739 11.2099 16.739 10.1459C16.739 9.08193 15.884 8.22693 14.82 8.22693C13.756 8.22693 12.901 9.08193 12.901 10.1459C12.901 11.2099 13.756 12.0649 14.82 12.0649Z" fill="#E86A92"/>
<path fill-rule="evenodd" clip-rule="evenodd" d="M18.677 16.2449C18.677 14.1929 16.948 12.7109 14.82 12.7109C12.692 12.7109 10.963 14.1929 10.963 16.2449V17.2139C10.963 17.3849 11.039 17.5559 11.153 17.6699C11.267 17.7839 11.438 17.8599 11.609 17.8599H18.031C18.202 17.8599 18.373 17.7839 18.487 17.6699C18.601 17.5559 18.677 17.3849 18.677 17.2139V16.2449ZM10.925 21.8499C10.925 21.472 11.0752 21.1096 11.3424 20.8423C11.6097 20.5751 11.9721 20.4249 12.35 20.4249H25.65C26.028 20.4249 26.3904 20.5751 26.6577 20.8423C26.9249 21.1096 27.075 21.472 27.075 21.8499C27.075 22.2279 26.9249 22.5903 26.6577 22.8576C26.3904 23.1248 26.028 23.2749 25.65 23.2749H12.35C11.9721 23.2749 11.6097 23.1248 11.3424 22.8576C11.0752 22.5903 10.925 22.2279 10.925 21.8499ZM10.925 27.5499C10.925 27.172 11.0752 26.8096 11.3424 26.5423C11.6097 26.2751 11.9721 26.1249 12.35 26.1249H25.65C26.028 26.1249 26.3904 26.2751 26.6577 26.5423C26.9249 26.8096 27.075 27.172 27.075 27.5499C27.075 27.9279 26.9249 28.2903 26.6577 28.5576C26.3904 28.8248 26.028 28.9749 25.65 28.9749H12.35C11.9721 28.9749 11.6097 28.8248 11.3424 28.5576C11.0752 28.2903 10.925 27.9279 10.925 27.5499Z" fill="#E86A92"/>
<path fill-rule="evenodd" clip-rule="evenodd" d="M4.75 4.74995C4.75 2.65615 6.4562 0.949951 8.55 0.949951H21.261C22.3288 0.949951 23.3358 1.40215 24.0445 2.14885L24.0559 2.16215L32.2487 11.096C32.9308 11.8237 33.25 12.7756 33.25 13.68V33.25C33.25 35.3438 31.5438 37.0499 29.45 37.0499H8.55C6.4562 37.0499 4.75 35.3438 4.75 33.25V4.74995ZM21.2591 4.74995H8.55V33.25H29.45V13.6648L21.2876 4.76325L21.2819 4.76135C21.275 4.75633 21.2673 4.75247 21.2591 4.74995Z" fill="#E86A92"/>
<path fill-rule="evenodd" clip-rule="evenodd" d="M21.261 0.949951C21.7649 0.949951 22.2481 1.15013 22.6045 1.50645C22.9608 1.86277 23.161 2.34604 23.161 2.84995V11.78H31.35C31.5995 11.78 31.8465 11.8291 32.0771 11.9246C32.3076 12.0201 32.517 12.16 32.6935 12.3364C32.8699 12.5129 33.0098 12.7223 33.1053 12.9529C33.2008 13.1834 33.25 13.4304 33.25 13.68C33.25 13.9295 33.2008 14.1765 33.1053 14.4071C33.0098 14.6376 32.8699 14.847 32.6935 15.0235C32.517 15.1999 32.3076 15.3398 32.0771 15.4353C31.8465 15.5308 31.5995 15.58 31.35 15.58H21.261C20.7571 15.58 20.2738 15.3798 19.9175 15.0235C19.5611 14.6671 19.361 14.1839 19.361 13.68V2.84995C19.361 2.34604 19.5611 1.86277 19.9175 1.50645C20.2738 1.15013 20.7571 0.949951 21.261 0.949951Z" fill="#E86A92"/>
</svg>
